<svg xmlns="http://www.w3.org/2000/svg" viewBox="0 0 828 1036" width="828" height="1036" font-family="Inter, system-ui, -apple-system, Segoe UI, sans-serif">
<rect width="100%" height="100%" fill="#FFFFFF"/>
<text x="414" y="32.65" font-size="19" font-weight="800" text-anchor="middle" fill="#141821">Crimson — complete journey (seat 1, top-left)</text>
<text x="414" y="56.375" font-size="12.5" font-weight="500" text-anchor="middle" fill="#5C6370">Opening with a 6 places the token on START (step 0). Every later step is one arrow. Home needs an exact roll.</text>
<rect x="16" y="70" width="796" height="796" rx="20" fill="#ECE6DC"/>
<g opacity="1">
<rect x="27" y="81" width="306" height="306" rx="20" fill="#C8102E"/>
<rect x="63" y="117" width="234" height="234" rx="16" fill="#F7F4EE"/>
<circle cx="128" cy="182" r="26" fill="#FFFFFF" stroke="#C8102E" stroke-width="3"/>
<circle cx="232" cy="182" r="26" fill="#FFFFFF" stroke="#C8102E" stroke-width="3"/>
<circle cx="128" cy="286" r="26" fill="#FFFFFF" stroke="#C8102E" stroke-width="3"/>
<circle cx="232" cy="286" r="26" fill="#FFFFFF" stroke="#C8102E" stroke-width="3"/>
<text x="180" y="226.25" font-size="15" font-weight="800" text-anchor="middle" fill="#790005">Crimson</text>
<text x="180" y="250.85" font-size="11" font-weight="600" text-anchor="middle" fill="#5C6370">Seat 1 · top-left</text>
</g>
<g opacity="0.35">
<rect x="495" y="81" width="306" height="306" rx="20" fill="#1F5FD6"/>
<rect x="531" y="117" width="234" height="234" rx="16" fill="#F7F4EE"/>
<circle cx="596" cy="182" r="26" fill="#FFFFFF" stroke="#1F5FD6" stroke-width="3"/>
<circle cx="700" cy="182" r="26" fill="#FFFFFF" stroke="#1F5FD6" stroke-width="3"/>
<circle cx="596" cy="286" r="26" fill="#FFFFFF" stroke="#1F5FD6" stroke-width="3"/>
<circle cx="700" cy="286" r="26" fill="#FFFFFF" stroke="#1F5FD6" stroke-width="3"/>
<text x="648" y="226.25" font-size="15" font-weight="800" text-anchor="middle" fill="#002E89">Royal Blue</text>
<text x="648" y="250.85" font-size="11" font-weight="600" text-anchor="middle" fill="#5C6370">Seat 2 · top-right</text>
</g>
<g opacity="0.35">
<rect x="495" y="549" width="306" height="306" rx="20" fill="#16B060"/>
<rect x="531" y="585" width="234" height="234" rx="16" fill="#F7F4EE"/>
<circle cx="596" cy="650" r="26" fill="#FFFFFF" stroke="#16B060" stroke-width="3"/>
<circle cx="700" cy="650" r="26" fill="#FFFFFF" stroke="#16B060" stroke-width="3"/>
<circle cx="596" cy="754" r="26" fill="#FFFFFF" stroke="#16B060" stroke-width="3"/>
<circle cx="700" cy="754" r="26" fill="#FFFFFF" stroke="#16B060" stroke-width="3"/>
<text x="648" y="694.25" font-size="15" font-weight="800" text-anchor="middle" fill="#005116">Emerald</text>
<text x="648" y="718.85" font-size="11" font-weight="600" text-anchor="middle" fill="#5C6370">Seat 3 · bottom-right</text>
</g>
<g opacity="0.35">
<rect x="27" y="549" width="306" height="306" rx="20" fill="#F5BE00"/>
<rect x="63" y="585" width="234" height="234" rx="16" fill="#F7F4EE"/>
<circle cx="128" cy="650" r="26" fill="#FFFFFF" stroke="#F5BE00" stroke-width="3"/>
<circle cx="232" cy="650" r="26" fill="#FFFFFF" stroke="#F5BE00" stroke-width="3"/>
<circle cx="128" cy="754" r="26" fill="#FFFFFF" stroke="#F5BE00" stroke-width="3"/>
<circle cx="232" cy="754" r="26" fill="#FFFFFF" stroke="#F5BE00" stroke-width="3"/>
<text x="180" y="694.25" font-size="15" font-weight="800" text-anchor="middle" fill="#5C3D00">Golden Yellow</text>
<text x="180" y="718.85" font-size="11" font-weight="600" text-anchor="middle" fill="#5C6370">Seat 4 · bottom-left</text>
</g>
<polygon points="336,390 336,546 414,468" fill="#C8102E" opacity="1"/>
<polygon points="336,390 492,390 414,468" fill="#1F5FD6" opacity="0.35"/>
<polygon points="492,390 492,546 414,468" fill="#16B060" opacity="0.35"/>
<polygon points="336,546 492,546 414,468" fill="#F5BE00" opacity="0.35"/>
<rect x="77" y="443" width="50" height="50" rx="6" fill="#E06862" stroke="#D8D0C2" opacity="1"/>
<rect x="129" y="443" width="50" height="50" rx="6" fill="#E06862" stroke="#D8D0C2" opacity="1"/>
<rect x="181" y="443" width="50" height="50" rx="6" fill="#E06862" stroke="#D8D0C2" opacity="1"/>
<rect x="233" y="443" width="50" height="50" rx="6" fill="#E06862" stroke="#D8D0C2" opacity="1"/>
<rect x="285" y="443" width="50" height="50" rx="6" fill="#E06862" stroke="#D8D0C2" opacity="1"/>
<rect x="389" y="131" width="50" height="50" rx="6" fill="#7B88DF" stroke="#D8D0C2" opacity="0.3"/>
<rect x="389" y="183" width="50" height="50" rx="6" fill="#7B88DF" stroke="#D8D0C2" opacity="0.3"/>
<rect x="389" y="235" width="50" height="50" rx="6" fill="#7B88DF" stroke="#D8D0C2" opacity="0.3"/>
<rect x="389" y="287" width="50" height="50" rx="6" fill="#7B88DF" stroke="#D8D0C2" opacity="0.3"/>
<rect x="389" y="339" width="50" height="50" rx="6" fill="#7B88DF" stroke="#D8D0C2" opacity="0.3"/>
<rect x="701" y="443" width="50" height="50" rx="6" fill="#71C689" stroke="#D8D0C2" opacity="0.3"/>
<rect x="649" y="443" width="50" height="50" rx="6" fill="#71C689" stroke="#D8D0C2" opacity="0.3"/>
<rect x="597" y="443" width="50" height="50" rx="6" fill="#71C689" stroke="#D8D0C2" opacity="0.3"/>
<rect x="545" y="443" width="50" height="50" rx="6" fill="#71C689" stroke="#D8D0C2" opacity="0.3"/>
<rect x="493" y="443" width="50" height="50" rx="6" fill="#71C689" stroke="#D8D0C2" opacity="0.3"/>
<rect x="389" y="755" width="50" height="50" rx="6" fill="#FCCE63" stroke="#D8D0C2" opacity="0.3"/>
<rect x="389" y="703" width="50" height="50" rx="6" fill="#FCCE63" stroke="#D8D0C2" opacity="0.3"/>
<rect x="389" y="651" width="50" height="50" rx="6" fill="#FCCE63" stroke="#D8D0C2" opacity="0.3"/>
<rect x="389" y="599" width="50" height="50" rx="6" fill="#FCCE63" stroke="#D8D0C2" opacity="0.3"/>
<rect x="389" y="547" width="50" height="50" rx="6" fill="#FCCE63" stroke="#D8D0C2" opacity="0.3"/>
<rect x="77" y="391" width="50" height="50" rx="6" fill="#C8102E" stroke="#D8D0C2" opacity="1"/>
<path d="M12 2.8l2.7 5.6 6.1.9-4.4 4.3 1 6.1L12 16.8l-5.4 2.9 1-6.1-4.4-4.3 6.1-.9z" fill="#FFFFFF" opacity="0.5" transform="translate(81.72 395.72) scale(1.6900000000000002)"/>
<rect x="129" y="391" width="50" height="50" rx="6" fill="#F7F4EE" stroke="#D8D0C2" opacity="1"/>
<rect x="181" y="391" width="50" height="50" rx="6" fill="#F7F4EE" stroke="#D8D0C2" opacity="1"/>
<rect x="233" y="391" width="50" height="50" rx="6" fill="#F7F4EE" stroke="#D8D0C2" opacity="1"/>
<rect x="285" y="391" width="50" height="50" rx="6" fill="#F7F4EE" stroke="#D8D0C2" opacity="1"/>
<rect x="337" y="339" width="50" height="50" rx="6" fill="#F7F4EE" stroke="#D8D0C2" opacity="1"/>
<rect x="337" y="287" width="50" height="50" rx="6" fill="#F7F4EE" stroke="#D8D0C2" opacity="1"/>
<rect x="337" y="235" width="50" height="50" rx="6" fill="#F7F4EE" stroke="#D8D0C2" opacity="1"/>
<rect x="337" y="183" width="50" height="50" rx="6" fill="#F7F4EE" stroke="#D8D0C2" opacity="1"/>
<path d="M12 2.8l2.7 5.6 6.1.9-4.4 4.3 1 6.1L12 16.8l-5.4 2.9 1-6.1-4.4-4.3 6.1-.9z" fill="#8E8676" opacity="0.45" transform="translate(341.72 187.72) scale(1.6900000000000002)"/>
<rect x="337" y="131" width="50" height="50" rx="6" fill="#F7F4EE" stroke="#D8D0C2" opacity="1"/>
<rect x="337" y="79" width="50" height="50" rx="6" fill="#F7F4EE" stroke="#D8D0C2" opacity="1"/>
<rect x="389" y="79" width="50" height="50" rx="6" fill="#F7F4EE" stroke="#D8D0C2" opacity="1"/>
<rect x="441" y="79" width="50" height="50" rx="6" fill="#F7F4EE" stroke="#D8D0C2" opacity="1"/>
<rect x="441" y="131" width="50" height="50" rx="6" fill="#1F5FD6" stroke="#D8D0C2" opacity="1"/>
<path d="M12 2.8l2.7 5.6 6.1.9-4.4 4.3 1 6.1L12 16.8l-5.4 2.9 1-6.1-4.4-4.3 6.1-.9z" fill="#FFFFFF" opacity="0.5" transform="translate(445.72 135.72) scale(1.6900000000000002)"/>
<rect x="441" y="183" width="50" height="50" rx="6" fill="#F7F4EE" stroke="#D8D0C2" opacity="1"/>
<rect x="441" y="235" width="50" height="50" rx="6" fill="#F7F4EE" stroke="#D8D0C2" opacity="1"/>
<rect x="441" y="287" width="50" height="50" rx="6" fill="#F7F4EE" stroke="#D8D0C2" opacity="1"/>
<rect x="441" y="339" width="50" height="50" rx="6" fill="#F7F4EE" stroke="#D8D0C2" opacity="1"/>
<rect x="493" y="391" width="50" height="50" rx="6" fill="#F7F4EE" stroke="#D8D0C2" opacity="1"/>
<rect x="545" y="391" width="50" height="50" rx="6" fill="#F7F4EE" stroke="#D8D0C2" opacity="1"/>
<rect x="597" y="391" width="50" height="50" rx="6" fill="#F7F4EE" stroke="#D8D0C2" opacity="1"/>
<rect x="649" y="391" width="50" height="50" rx="6" fill="#F7F4EE" stroke="#D8D0C2" opacity="1"/>
<path d="M12 2.8l2.7 5.6 6.1.9-4.4 4.3 1 6.1L12 16.8l-5.4 2.9 1-6.1-4.4-4.3 6.1-.9z" fill="#8E8676" opacity="0.45" transform="translate(653.72 395.72) scale(1.6900000000000002)"/>
<rect x="701" y="391" width="50" height="50" rx="6" fill="#F7F4EE" stroke="#D8D0C2" opacity="1"/>
<rect x="753" y="391" width="50" height="50" rx="6" fill="#F7F4EE" stroke="#D8D0C2" opacity="1"/>
<rect x="753" y="443" width="50" height="50" rx="6" fill="#F7F4EE" stroke="#D8D0C2" opacity="1"/>
<rect x="753" y="495" width="50" height="50" rx="6" fill="#F7F4EE" stroke="#D8D0C2" opacity="1"/>
<rect x="701" y="495" width="50" height="50" rx="6" fill="#16B060" stroke="#D8D0C2" opacity="1"/>
<path d="M12 2.8l2.7 5.6 6.1.9-4.4 4.3 1 6.1L12 16.8l-5.4 2.9 1-6.1-4.4-4.3 6.1-.9z" fill="#FFFFFF" opacity="0.5" transform="translate(705.72 499.72) scale(1.6900000000000002)"/>
<rect x="649" y="495" width="50" height="50" rx="6" fill="#F7F4EE" stroke="#D8D0C2" opacity="1"/>
<rect x="597" y="495" width="50" height="50" rx="6" fill="#F7F4EE" stroke="#D8D0C2" opacity="1"/>
<rect x="545" y="495" width="50" height="50" rx="6" fill="#F7F4EE" stroke="#D8D0C2" opacity="1"/>
<rect x="493" y="495" width="50" height="50" rx="6" fill="#F7F4EE" stroke="#D8D0C2" opacity="1"/>
<rect x="441" y="547" width="50" height="50" rx="6" fill="#F7F4EE" stroke="#D8D0C2" opacity="1"/>
<rect x="441" y="599" width="50" height="50" rx="6" fill="#F7F4EE" stroke="#D8D0C2" opacity="1"/>
<rect x="441" y="651" width="50" height="50" rx="6" fill="#F7F4EE" stroke="#D8D0C2" opacity="1"/>
<rect x="441" y="703" width="50" height="50" rx="6" fill="#F7F4EE" stroke="#D8D0C2" opacity="1"/>
<path d="M12 2.8l2.7 5.6 6.1.9-4.4 4.3 1 6.1L12 16.8l-5.4 2.9 1-6.1-4.4-4.3 6.1-.9z" fill="#8E8676" opacity="0.45" transform="translate(445.72 707.72) scale(1.6900000000000002)"/>
<rect x="441" y="755" width="50" height="50" rx="6" fill="#F7F4EE" stroke="#D8D0C2" opacity="1"/>
<rect x="441" y="807" width="50" height="50" rx="6" fill="#F7F4EE" stroke="#D8D0C2" opacity="1"/>
<rect x="389" y="807" width="50" height="50" rx="6" fill="#F7F4EE" stroke="#D8D0C2" opacity="1"/>
<rect x="337" y="807" width="50" height="50" rx="6" fill="#F7F4EE" stroke="#D8D0C2" opacity="1"/>
<rect x="337" y="755" width="50" height="50" rx="6" fill="#F5BE00" stroke="#D8D0C2" opacity="1"/>
<path d="M12 2.8l2.7 5.6 6.1.9-4.4 4.3 1 6.1L12 16.8l-5.4 2.9 1-6.1-4.4-4.3 6.1-.9z" fill="#FFFFFF" opacity="0.5" transform="translate(341.72 759.72) scale(1.6900000000000002)"/>
<rect x="337" y="703" width="50" height="50" rx="6" fill="#F7F4EE" stroke="#D8D0C2" opacity="1"/>
<rect x="337" y="651" width="50" height="50" rx="6" fill="#F7F4EE" stroke="#D8D0C2" opacity="1"/>
<rect x="337" y="599" width="50" height="50" rx="6" fill="#F7F4EE" stroke="#D8D0C2" opacity="1"/>
<rect x="337" y="547" width="50" height="50" rx="6" fill="#F7F4EE" stroke="#D8D0C2" opacity="1"/>
<rect x="285" y="495" width="50" height="50" rx="6" fill="#F7F4EE" stroke="#D8D0C2" opacity="1"/>
<rect x="233" y="495" width="50" height="50" rx="6" fill="#F7F4EE" stroke="#D8D0C2" opacity="1"/>
<rect x="181" y="495" width="50" height="50" rx="6" fill="#F7F4EE" stroke="#D8D0C2" opacity="1"/>
<rect x="129" y="495" width="50" height="50" rx="6" fill="#F7F4EE" stroke="#D8D0C2" opacity="1"/>
<path d="M12 2.8l2.7 5.6 6.1.9-4.4 4.3 1 6.1L12 16.8l-5.4 2.9 1-6.1-4.4-4.3 6.1-.9z" fill="#8E8676" opacity="0.45" transform="translate(133.72 499.72) scale(1.6900000000000002)"/>
<rect x="77" y="495" width="50" height="50" rx="6" fill="#F7F4EE" stroke="#D8D0C2" opacity="1"/>
<rect x="25" y="495" width="50" height="50" rx="6" fill="#F7F4EE" stroke="#D8D0C2" opacity="1"/>
<rect x="25" y="443" width="50" height="50" rx="6" fill="#F7F4EE" stroke="#D8D0C2" opacity="1"/>
<rect x="25" y="391" width="50" height="50" rx="6" fill="#F7F4EE" stroke="#D8D0C2" opacity="0.3"/>
<polyline points="102,416 154,416 206,416 258,416 310,416 362,364 362,312 362,260 362,208 362,156 362,104 414,104 466,104 466,156 466,208 466,260 466,312 466,364 518,416 570,416 622,416 674,416 726,416 778,416 778,468 778,520 726,520 674,520 622,520 570,520 518,520 466,572 466,624 466,676 466,728 466,780 466,832 414,832 362,832 362,780 362,728 362,676 362,624 362,572 310,520 258,520 206,520 154,520 102,520 50,520 50,468 102,468 154,468 206,468 258,468 310,468 362,468" fill="none" stroke="#C8102E" stroke-width="12" stroke-linejoin="round" stroke-linecap="round" opacity="0.45"/>
<path d="M-9 -9L9 0L-9 9z" fill="#790005" stroke="#FFFFFF" stroke-width="1.5" stroke-linejoin="round" transform="translate(128 416) rotate(0)"/>
<path d="M-9 -9L9 0L-9 9z" fill="#790005" stroke="#FFFFFF" stroke-width="1.5" stroke-linejoin="round" transform="translate(180 416) rotate(0)"/>
<path d="M-9 -9L9 0L-9 9z" fill="#790005" stroke="#FFFFFF" stroke-width="1.5" stroke-linejoin="round" transform="translate(232 416) rotate(0)"/>
<path d="M-9 -9L9 0L-9 9z" fill="#790005" stroke="#FFFFFF" stroke-width="1.5" stroke-linejoin="round" transform="translate(284 416) rotate(0)"/>
<path d="M-9 -9L9 0L-9 9z" fill="#790005" stroke="#FFFFFF" stroke-width="1.5" stroke-linejoin="round" transform="translate(336 390) rotate(-45)"/>
<path d="M-9 -9L9 0L-9 9z" fill="#790005" stroke="#FFFFFF" stroke-width="1.5" stroke-linejoin="round" transform="translate(362 338) rotate(-90)"/>
<path d="M-9 -9L9 0L-9 9z" fill="#790005" stroke="#FFFFFF" stroke-width="1.5" stroke-linejoin="round" transform="translate(362 286) rotate(-90)"/>
<path d="M-9 -9L9 0L-9 9z" fill="#790005" stroke="#FFFFFF" stroke-width="1.5" stroke-linejoin="round" transform="translate(362 234) rotate(-90)"/>
<path d="M-9 -9L9 0L-9 9z" fill="#790005" stroke="#FFFFFF" stroke-width="1.5" stroke-linejoin="round" transform="translate(362 182) rotate(-90)"/>
<path d="M-9 -9L9 0L-9 9z" fill="#790005" stroke="#FFFFFF" stroke-width="1.5" stroke-linejoin="round" transform="translate(362 130) rotate(-90)"/>
<path d="M-9 -9L9 0L-9 9z" fill="#790005" stroke="#FFFFFF" stroke-width="1.5" stroke-linejoin="round" transform="translate(388 104) rotate(0)"/>
<path d="M-9 -9L9 0L-9 9z" fill="#790005" stroke="#FFFFFF" stroke-width="1.5" stroke-linejoin="round" transform="translate(440 104) rotate(0)"/>
<path d="M-9 -9L9 0L-9 9z" fill="#790005" stroke="#FFFFFF" stroke-width="1.5" stroke-linejoin="round" transform="translate(466 130) rotate(90)"/>
<path d="M-9 -9L9 0L-9 9z" fill="#790005" stroke="#FFFFFF" stroke-width="1.5" stroke-linejoin="round" transform="translate(466 182) rotate(90)"/>
<path d="M-9 -9L9 0L-9 9z" fill="#790005" stroke="#FFFFFF" stroke-width="1.5" stroke-linejoin="round" transform="translate(466 234) rotate(90)"/>
<path d="M-9 -9L9 0L-9 9z" fill="#790005" stroke="#FFFFFF" stroke-width="1.5" stroke-linejoin="round" transform="translate(466 286) rotate(90)"/>
<path d="M-9 -9L9 0L-9 9z" fill="#790005" stroke="#FFFFFF" stroke-width="1.5" stroke-linejoin="round" transform="translate(466 338) rotate(90)"/>
<path d="M-9 -9L9 0L-9 9z" fill="#790005" stroke="#FFFFFF" stroke-width="1.5" stroke-linejoin="round" transform="translate(492 390) rotate(45)"/>
<path d="M-9 -9L9 0L-9 9z" fill="#790005" stroke="#FFFFFF" stroke-width="1.5" stroke-linejoin="round" transform="translate(544 416) rotate(0)"/>
<path d="M-9 -9L9 0L-9 9z" fill="#790005" stroke="#FFFFFF" stroke-width="1.5" stroke-linejoin="round" transform="translate(596 416) rotate(0)"/>
<path d="M-9 -9L9 0L-9 9z" fill="#790005" stroke="#FFFFFF" stroke-width="1.5" stroke-linejoin="round" transform="translate(648 416) rotate(0)"/>
<path d="M-9 -9L9 0L-9 9z" fill="#790005" stroke="#FFFFFF" stroke-width="1.5" stroke-linejoin="round" transform="translate(700 416) rotate(0)"/>
<path d="M-9 -9L9 0L-9 9z" fill="#790005" stroke="#FFFFFF" stroke-width="1.5" stroke-linejoin="round" transform="translate(752 416) rotate(0)"/>
<path d="M-9 -9L9 0L-9 9z" fill="#790005" stroke="#FFFFFF" stroke-width="1.5" stroke-linejoin="round" transform="translate(778 442) rotate(90)"/>
<path d="M-9 -9L9 0L-9 9z" fill="#790005" stroke="#FFFFFF" stroke-width="1.5" stroke-linejoin="round" transform="translate(778 494) rotate(90)"/>
<path d="M-9 -9L9 0L-9 9z" fill="#790005" stroke="#FFFFFF" stroke-width="1.5" stroke-linejoin="round" transform="translate(752 520) rotate(180)"/>
<path d="M-9 -9L9 0L-9 9z" fill="#790005" stroke="#FFFFFF" stroke-width="1.5" stroke-linejoin="round" transform="translate(700 520) rotate(180)"/>
<path d="M-9 -9L9 0L-9 9z" fill="#790005" stroke="#FFFFFF" stroke-width="1.5" stroke-linejoin="round" transform="translate(648 520) rotate(180)"/>
<path d="M-9 -9L9 0L-9 9z" fill="#790005" stroke="#FFFFFF" stroke-width="1.5" stroke-linejoin="round" transform="translate(596 520) rotate(180)"/>
<path d="M-9 -9L9 0L-9 9z" fill="#790005" stroke="#FFFFFF" stroke-width="1.5" stroke-linejoin="round" transform="translate(544 520) rotate(180)"/>
<path d="M-9 -9L9 0L-9 9z" fill="#790005" stroke="#FFFFFF" stroke-width="1.5" stroke-linejoin="round" transform="translate(492 546) rotate(135)"/>
<path d="M-9 -9L9 0L-9 9z" fill="#790005" stroke="#FFFFFF" stroke-width="1.5" stroke-linejoin="round" transform="translate(466 598) rotate(90)"/>
<path d="M-9 -9L9 0L-9 9z" fill="#790005" stroke="#FFFFFF" stroke-width="1.5" stroke-linejoin="round" transform="translate(466 650) rotate(90)"/>
<path d="M-9 -9L9 0L-9 9z" fill="#790005" stroke="#FFFFFF" stroke-width="1.5" stroke-linejoin="round" transform="translate(466 702) rotate(90)"/>
<path d="M-9 -9L9 0L-9 9z" fill="#790005" stroke="#FFFFFF" stroke-width="1.5" stroke-linejoin="round" transform="translate(466 754) rotate(90)"/>
<path d="M-9 -9L9 0L-9 9z" fill="#790005" stroke="#FFFFFF" stroke-width="1.5" stroke-linejoin="round" transform="translate(466 806) rotate(90)"/>
<path d="M-9 -9L9 0L-9 9z" fill="#790005" stroke="#FFFFFF" stroke-width="1.5" stroke-linejoin="round" transform="translate(440 832) rotate(180)"/>
<path d="M-9 -9L9 0L-9 9z" fill="#790005" stroke="#FFFFFF" stroke-width="1.5" stroke-linejoin="round" transform="translate(388 832) rotate(180)"/>
<path d="M-9 -9L9 0L-9 9z" fill="#790005" stroke="#FFFFFF" stroke-width="1.5" stroke-linejoin="round" transform="translate(362 806) rotate(-90)"/>
<path d="M-9 -9L9 0L-9 9z" fill="#790005" stroke="#FFFFFF" stroke-width="1.5" stroke-linejoin="round" transform="translate(362 754) rotate(-90)"/>
<path d="M-9 -9L9 0L-9 9z" fill="#790005" stroke="#FFFFFF" stroke-width="1.5" stroke-linejoin="round" transform="translate(362 702) rotate(-90)"/>
<path d="M-9 -9L9 0L-9 9z" fill="#790005" stroke="#FFFFFF" stroke-width="1.5" stroke-linejoin="round" transform="translate(362 650) rotate(-90)"/>
<path d="M-9 -9L9 0L-9 9z" fill="#790005" stroke="#FFFFFF" stroke-width="1.5" stroke-linejoin="round" transform="translate(362 598) rotate(-90)"/>
<path d="M-9 -9L9 0L-9 9z" fill="#790005" stroke="#FFFFFF" stroke-width="1.5" stroke-linejoin="round" transform="translate(336 546) rotate(-135)"/>
<path d="M-9 -9L9 0L-9 9z" fill="#790005" stroke="#FFFFFF" stroke-width="1.5" stroke-linejoin="round" transform="translate(284 520) rotate(180)"/>
<path d="M-9 -9L9 0L-9 9z" fill="#790005" stroke="#FFFFFF" stroke-width="1.5" stroke-linejoin="round" transform="translate(232 520) rotate(180)"/>
<path d="M-9 -9L9 0L-9 9z" fill="#790005" stroke="#FFFFFF" stroke-width="1.5" stroke-linejoin="round" transform="translate(180 520) rotate(180)"/>
<path d="M-9 -9L9 0L-9 9z" fill="#790005" stroke="#FFFFFF" stroke-width="1.5" stroke-linejoin="round" transform="translate(128 520) rotate(180)"/>
<path d="M-9 -9L9 0L-9 9z" fill="#790005" stroke="#FFFFFF" stroke-width="1.5" stroke-linejoin="round" transform="translate(76 520) rotate(180)"/>
<path d="M-9 -9L9 0L-9 9z" fill="#790005" stroke="#FFFFFF" stroke-width="1.5" stroke-linejoin="round" transform="translate(50 494) rotate(-90)"/>
<path d="M-9 -9L9 0L-9 9z" fill="#790005" stroke="#FFFFFF" stroke-width="1.5" stroke-linejoin="round" transform="translate(76 468) rotate(0)"/>
<path d="M-9 -9L9 0L-9 9z" fill="#790005" stroke="#FFFFFF" stroke-width="1.5" stroke-linejoin="round" transform="translate(128 468) rotate(0)"/>
<path d="M-9 -9L9 0L-9 9z" fill="#790005" stroke="#FFFFFF" stroke-width="1.5" stroke-linejoin="round" transform="translate(180 468) rotate(0)"/>
<path d="M-9 -9L9 0L-9 9z" fill="#790005" stroke="#FFFFFF" stroke-width="1.5" stroke-linejoin="round" transform="translate(232 468) rotate(0)"/>
<path d="M-9 -9L9 0L-9 9z" fill="#790005" stroke="#FFFFFF" stroke-width="1.5" stroke-linejoin="round" transform="translate(284 468) rotate(0)"/>
<path d="M-9 -9L9 0L-9 9z" fill="#790005" stroke="#FFFFFF" stroke-width="1.5" stroke-linejoin="round" transform="translate(336 468) rotate(0)"/>
<rect x="78" y="392" width="48" height="48" rx="7" fill="none" stroke="#141821" stroke-width="3.5"/>
<rect x="26" y="444" width="48" height="48" rx="7" fill="none" stroke="#790005" stroke-width="3.5" stroke-dasharray="6 4"/>
<rect x="91" y="405" width="22" height="22" rx="11" fill="#FFFFFF" stroke="#141821" stroke-width="1.5"/><text x="102" y="420.2" font-size="12" font-weight="700" text-anchor="middle" fill="#141821">0</text>
<rect x="143" y="405" width="22" height="22" rx="11" fill="#FFFFFF" stroke="#790005" stroke-width="1.5"/><text x="154" y="420.2" font-size="12" font-weight="700" text-anchor="middle" fill="#141821">1</text>
<rect x="195" y="405" width="22" height="22" rx="11" fill="#FFFFFF" stroke="#790005" stroke-width="1.5"/><text x="206" y="420.2" font-size="12" font-weight="700" text-anchor="middle" fill="#141821">2</text>
<rect x="247" y="405" width="22" height="22" rx="11" fill="#FFFFFF" stroke="#790005" stroke-width="1.5"/><text x="258" y="420.2" font-size="12" font-weight="700" text-anchor="middle" fill="#141821">3</text>
<rect x="299" y="405" width="22" height="22" rx="11" fill="#FFFFFF" stroke="#790005" stroke-width="1.5"/><text x="310" y="420.2" font-size="12" font-weight="700" text-anchor="middle" fill="#141821">4</text>
<rect x="351" y="353" width="22" height="22" rx="11" fill="#FFFFFF" stroke="#790005" stroke-width="1.5"/><text x="362" y="368.2" font-size="12" font-weight="700" text-anchor="middle" fill="#141821">5</text>
<rect x="351" y="301" width="22" height="22" rx="11" fill="#FFFFFF" stroke="#790005" stroke-width="1.5"/><text x="362" y="316.2" font-size="12" font-weight="700" text-anchor="middle" fill="#141821">6</text>
<rect x="351" y="249" width="22" height="22" rx="11" fill="#FFFFFF" stroke="#790005" stroke-width="1.5"/><text x="362" y="264.2" font-size="12" font-weight="700" text-anchor="middle" fill="#141821">7</text>
<rect x="351" y="197" width="22" height="22" rx="11" fill="#FFFFFF" stroke="#790005" stroke-width="1.5"/><text x="362" y="212.2" font-size="12" font-weight="700" text-anchor="middle" fill="#141821">8</text>
<rect x="351" y="145" width="22" height="22" rx="11" fill="#FFFFFF" stroke="#790005" stroke-width="1.5"/><text x="362" y="160.2" font-size="12" font-weight="700" text-anchor="middle" fill="#141821">9</text>
<rect x="349" y="93" width="26" height="22" rx="11" fill="#FFFFFF" stroke="#790005" stroke-width="1.5"/><text x="362" y="108.2" font-size="12" font-weight="700" text-anchor="middle" fill="#141821">10</text>
<rect x="401" y="93" width="26" height="22" rx="11" fill="#FFFFFF" stroke="#790005" stroke-width="1.5"/><text x="414" y="108.2" font-size="12" font-weight="700" text-anchor="middle" fill="#141821">11</text>
<rect x="453" y="93" width="26" height="22" rx="11" fill="#FFFFFF" stroke="#790005" stroke-width="1.5"/><text x="466" y="108.2" font-size="12" font-weight="700" text-anchor="middle" fill="#141821">12</text>
<rect x="453" y="145" width="26" height="22" rx="11" fill="#FFFFFF" stroke="#790005" stroke-width="1.5"/><text x="466" y="160.2" font-size="12" font-weight="700" text-anchor="middle" fill="#141821">13</text>
<rect x="453" y="197" width="26" height="22" rx="11" fill="#FFFFFF" stroke="#790005" stroke-width="1.5"/><text x="466" y="212.2" font-size="12" font-weight="700" text-anchor="middle" fill="#141821">14</text>
<rect x="453" y="249" width="26" height="22" rx="11" fill="#FFFFFF" stroke="#790005" stroke-width="1.5"/><text x="466" y="264.2" font-size="12" font-weight="700" text-anchor="middle" fill="#141821">15</text>
<rect x="453" y="301" width="26" height="22" rx="11" fill="#FFFFFF" stroke="#790005" stroke-width="1.5"/><text x="466" y="316.2" font-size="12" font-weight="700" text-anchor="middle" fill="#141821">16</text>
<rect x="453" y="353" width="26" height="22" rx="11" fill="#FFFFFF" stroke="#790005" stroke-width="1.5"/><text x="466" y="368.2" font-size="12" font-weight="700" text-anchor="middle" fill="#141821">17</text>
<rect x="505" y="405" width="26" height="22" rx="11" fill="#FFFFFF" stroke="#790005" stroke-width="1.5"/><text x="518" y="420.2" font-size="12" font-weight="700" text-anchor="middle" fill="#141821">18</text>
<rect x="557" y="405" width="26" height="22" rx="11" fill="#FFFFFF" stroke="#790005" stroke-width="1.5"/><text x="570" y="420.2" font-size="12" font-weight="700" text-anchor="middle" fill="#141821">19</text>
<rect x="609" y="405" width="26" height="22" rx="11" fill="#FFFFFF" stroke="#790005" stroke-width="1.5"/><text x="622" y="420.2" font-size="12" font-weight="700" text-anchor="middle" fill="#141821">20</text>
<rect x="661" y="405" width="26" height="22" rx="11" fill="#FFFFFF" stroke="#790005" stroke-width="1.5"/><text x="674" y="420.2" font-size="12" font-weight="700" text-anchor="middle" fill="#141821">21</text>
<rect x="713" y="405" width="26" height="22" rx="11" fill="#FFFFFF" stroke="#790005" stroke-width="1.5"/><text x="726" y="420.2" font-size="12" font-weight="700" text-anchor="middle" fill="#141821">22</text>
<rect x="765" y="405" width="26" height="22" rx="11" fill="#FFFFFF" stroke="#790005" stroke-width="1.5"/><text x="778" y="420.2" font-size="12" font-weight="700" text-anchor="middle" fill="#141821">23</text>
<rect x="765" y="457" width="26" height="22" rx="11" fill="#FFFFFF" stroke="#790005" stroke-width="1.5"/><text x="778" y="472.2" font-size="12" font-weight="700" text-anchor="middle" fill="#141821">24</text>
<rect x="765" y="509" width="26" height="22" rx="11" fill="#FFFFFF" stroke="#790005" stroke-width="1.5"/><text x="778" y="524.2" font-size="12" font-weight="700" text-anchor="middle" fill="#141821">25</text>
<rect x="713" y="509" width="26" height="22" rx="11" fill="#FFFFFF" stroke="#790005" stroke-width="1.5"/><text x="726" y="524.2" font-size="12" font-weight="700" text-anchor="middle" fill="#141821">26</text>
<rect x="661" y="509" width="26" height="22" rx="11" fill="#FFFFFF" stroke="#790005" stroke-width="1.5"/><text x="674" y="524.2" font-size="12" font-weight="700" text-anchor="middle" fill="#141821">27</text>
<rect x="609" y="509" width="26" height="22" rx="11" fill="#FFFFFF" stroke="#790005" stroke-width="1.5"/><text x="622" y="524.2" font-size="12" font-weight="700" text-anchor="middle" fill="#141821">28</text>
<rect x="557" y="509" width="26" height="22" rx="11" fill="#FFFFFF" stroke="#790005" stroke-width="1.5"/><text x="570" y="524.2" font-size="12" font-weight="700" text-anchor="middle" fill="#141821">29</text>
<rect x="505" y="509" width="26" height="22" rx="11" fill="#FFFFFF" stroke="#790005" stroke-width="1.5"/><text x="518" y="524.2" font-size="12" font-weight="700" text-anchor="middle" fill="#141821">30</text>
<rect x="453" y="561" width="26" height="22" rx="11" fill="#FFFFFF" stroke="#790005" stroke-width="1.5"/><text x="466" y="576.2" font-size="12" font-weight="700" text-anchor="middle" fill="#141821">31</text>
<rect x="453" y="613" width="26" height="22" rx="11" fill="#FFFFFF" stroke="#790005" stroke-width="1.5"/><text x="466" y="628.2" font-size="12" font-weight="700" text-anchor="middle" fill="#141821">32</text>
<rect x="453" y="665" width="26" height="22" rx="11" fill="#FFFFFF" stroke="#790005" stroke-width="1.5"/><text x="466" y="680.2" font-size="12" font-weight="700" text-anchor="middle" fill="#141821">33</text>
<rect x="453" y="717" width="26" height="22" rx="11" fill="#FFFFFF" stroke="#790005" stroke-width="1.5"/><text x="466" y="732.2" font-size="12" font-weight="700" text-anchor="middle" fill="#141821">34</text>
<rect x="453" y="769" width="26" height="22" rx="11" fill="#FFFFFF" stroke="#790005" stroke-width="1.5"/><text x="466" y="784.2" font-size="12" font-weight="700" text-anchor="middle" fill="#141821">35</text>
<rect x="453" y="821" width="26" height="22" rx="11" fill="#FFFFFF" stroke="#790005" stroke-width="1.5"/><text x="466" y="836.2" font-size="12" font-weight="700" text-anchor="middle" fill="#141821">36</text>
<rect x="401" y="821" width="26" height="22" rx="11" fill="#FFFFFF" stroke="#790005" stroke-width="1.5"/><text x="414" y="836.2" font-size="12" font-weight="700" text-anchor="middle" fill="#141821">37</text>
<rect x="349" y="821" width="26" height="22" rx="11" fill="#FFFFFF" stroke="#790005" stroke-width="1.5"/><text x="362" y="836.2" font-size="12" font-weight="700" text-anchor="middle" fill="#141821">38</text>
<rect x="349" y="769" width="26" height="22" rx="11" fill="#FFFFFF" stroke="#790005" stroke-width="1.5"/><text x="362" y="784.2" font-size="12" font-weight="700" text-anchor="middle" fill="#141821">39</text>
<rect x="349" y="717" width="26" height="22" rx="11" fill="#FFFFFF" stroke="#790005" stroke-width="1.5"/><text x="362" y="732.2" font-size="12" font-weight="700" text-anchor="middle" fill="#141821">40</text>
<rect x="349" y="665" width="26" height="22" rx="11" fill="#FFFFFF" stroke="#790005" stroke-width="1.5"/><text x="362" y="680.2" font-size="12" font-weight="700" text-anchor="middle" fill="#141821">41</text>
<rect x="349" y="613" width="26" height="22" rx="11" fill="#FFFFFF" stroke="#790005" stroke-width="1.5"/><text x="362" y="628.2" font-size="12" font-weight="700" text-anchor="middle" fill="#141821">42</text>
<rect x="349" y="561" width="26" height="22" rx="11" fill="#FFFFFF" stroke="#790005" stroke-width="1.5"/><text x="362" y="576.2" font-size="12" font-weight="700" text-anchor="middle" fill="#141821">43</text>
<rect x="297" y="509" width="26" height="22" rx="11" fill="#FFFFFF" stroke="#790005" stroke-width="1.5"/><text x="310" y="524.2" font-size="12" font-weight="700" text-anchor="middle" fill="#141821">44</text>
<rect x="245" y="509" width="26" height="22" rx="11" fill="#FFFFFF" stroke="#790005" stroke-width="1.5"/><text x="258" y="524.2" font-size="12" font-weight="700" text-anchor="middle" fill="#141821">45</text>
<rect x="193" y="509" width="26" height="22" rx="11" fill="#FFFFFF" stroke="#790005" stroke-width="1.5"/><text x="206" y="524.2" font-size="12" font-weight="700" text-anchor="middle" fill="#141821">46</text>
<rect x="141" y="509" width="26" height="22" rx="11" fill="#FFFFFF" stroke="#790005" stroke-width="1.5"/><text x="154" y="524.2" font-size="12" font-weight="700" text-anchor="middle" fill="#141821">47</text>
<rect x="89" y="509" width="26" height="22" rx="11" fill="#FFFFFF" stroke="#790005" stroke-width="1.5"/><text x="102" y="524.2" font-size="12" font-weight="700" text-anchor="middle" fill="#141821">48</text>
<rect x="37" y="509" width="26" height="22" rx="11" fill="#FFFFFF" stroke="#790005" stroke-width="1.5"/><text x="50" y="524.2" font-size="12" font-weight="700" text-anchor="middle" fill="#141821">49</text>
<rect x="37" y="457" width="26" height="22" rx="11" fill="#FFFFFF" stroke="#141821" stroke-width="1.5"/><text x="50" y="472.2" font-size="12" font-weight="700" text-anchor="middle" fill="#141821">50</text>
<rect x="89" y="457" width="26" height="22" rx="11" fill="#FFFFFF" stroke="#790005" stroke-width="1.5"/><text x="102" y="472.2" font-size="12" font-weight="700" text-anchor="middle" fill="#141821">51</text>
<rect x="141" y="457" width="26" height="22" rx="11" fill="#FFFFFF" stroke="#790005" stroke-width="1.5"/><text x="154" y="472.2" font-size="12" font-weight="700" text-anchor="middle" fill="#141821">52</text>
<rect x="193" y="457" width="26" height="22" rx="11" fill="#FFFFFF" stroke="#790005" stroke-width="1.5"/><text x="206" y="472.2" font-size="12" font-weight="700" text-anchor="middle" fill="#141821">53</text>
<rect x="245" y="457" width="26" height="22" rx="11" fill="#FFFFFF" stroke="#790005" stroke-width="1.5"/><text x="258" y="472.2" font-size="12" font-weight="700" text-anchor="middle" fill="#141821">54</text>
<rect x="297" y="457" width="26" height="22" rx="11" fill="#FFFFFF" stroke="#790005" stroke-width="1.5"/><text x="310" y="472.2" font-size="12" font-weight="700" text-anchor="middle" fill="#141821">55</text>
<circle cx="362" cy="468" r="20" fill="#FFFFFF" stroke="#790005" stroke-width="3"/>
<text x="362" y="472.9" font-size="14" font-weight="800" text-anchor="middle" fill="#141821">56</text>
<text x="102" y="437" font-size="10" font-weight="800" text-anchor="middle" fill="#141821" paint-order="stroke" stroke="#FFFFFF" stroke-width="3">START</text>
<text x="50" y="453" font-size="10" font-weight="800" text-anchor="middle" fill="#141821" paint-order="stroke" stroke="#FFFFFF" stroke-width="3">ENTRY</text>
<text x="362" y="444" font-size="10" font-weight="800" text-anchor="middle" fill="#141821" paint-order="stroke" stroke="#FFFFFF" stroke-width="3">HOME</text>
<circle cx="772" cy="826" r="25" fill="#FFFFFF" stroke="#D8D0C2"/><path d="M772 810A16 16 0 1 1 756 826" fill="none" stroke="#141821" stroke-width="3.5"/><path d="M749 824L756 834L763 824z" fill="#141821"/>
<g transform="translate(109 392) scale(0.625)"><circle cx="12" cy="12" r="12" fill="#FFFFFF"/><path d="M12 2.8l2.7 5.6 6.1.9-4.4 4.3 1 6.1L12 16.8l-5.4 2.9 1-6.1-4.4-4.3 6.1-.9z" fill="#C9A227" stroke="#6B5310" stroke-width="1.2"/></g>
<g transform="translate(369 184) scale(0.625)"><circle cx="12" cy="12" r="12" fill="#FFFFFF"/><path d="M12 2.8l2.7 5.6 6.1.9-4.4 4.3 1 6.1L12 16.8l-5.4 2.9 1-6.1-4.4-4.3 6.1-.9z" fill="#C9A227" stroke="#6B5310" stroke-width="1.2"/></g>
<g transform="translate(473 132) scale(0.625)"><circle cx="12" cy="12" r="12" fill="#FFFFFF"/><path d="M12 2.8l2.7 5.6 6.1.9-4.4 4.3 1 6.1L12 16.8l-5.4 2.9 1-6.1-4.4-4.3 6.1-.9z" fill="#C9A227" stroke="#6B5310" stroke-width="1.2"/></g>
<g transform="translate(681 392) scale(0.625)"><circle cx="12" cy="12" r="12" fill="#FFFFFF"/><path d="M12 2.8l2.7 5.6 6.1.9-4.4 4.3 1 6.1L12 16.8l-5.4 2.9 1-6.1-4.4-4.3 6.1-.9z" fill="#C9A227" stroke="#6B5310" stroke-width="1.2"/></g>
<g transform="translate(733 496) scale(0.625)"><circle cx="12" cy="12" r="12" fill="#FFFFFF"/><path d="M12 2.8l2.7 5.6 6.1.9-4.4 4.3 1 6.1L12 16.8l-5.4 2.9 1-6.1-4.4-4.3 6.1-.9z" fill="#C9A227" stroke="#6B5310" stroke-width="1.2"/></g>
<g transform="translate(473 704) scale(0.625)"><circle cx="12" cy="12" r="12" fill="#FFFFFF"/><path d="M12 2.8l2.7 5.6 6.1.9-4.4 4.3 1 6.1L12 16.8l-5.4 2.9 1-6.1-4.4-4.3 6.1-.9z" fill="#C9A227" stroke="#6B5310" stroke-width="1.2"/></g>
<g transform="translate(369 756) scale(0.625)"><circle cx="12" cy="12" r="12" fill="#FFFFFF"/><path d="M12 2.8l2.7 5.6 6.1.9-4.4 4.3 1 6.1L12 16.8l-5.4 2.9 1-6.1-4.4-4.3 6.1-.9z" fill="#C9A227" stroke="#6B5310" stroke-width="1.2"/></g>
<g transform="translate(161 496) scale(0.625)"><circle cx="12" cy="12" r="12" fill="#FFFFFF"/><path d="M12 2.8l2.7 5.6 6.1.9-4.4 4.3 1 6.1L12 16.8l-5.4 2.9 1-6.1-4.4-4.3 6.1-.9z" fill="#C9A227" stroke="#6B5310" stroke-width="1.2"/></g>
<text x="24" y="892.2" font-size="12" font-weight="700" text-anchor="start" fill="#141821">Start r6c1 · first moves r6c2, r6c3, r6c4, r6c5, r5c6</text>
<text x="24" y="911.2" font-size="12" font-weight="500" text-anchor="start" fill="#3A404D">Last track cells r8c3, r8c2, r8c1, r8c0, r7c0 · home entry r7c0 (step 50)</text>
<text x="24" y="930.2" font-size="12" font-weight="500" text-anchor="start" fill="#3A404D">Home lane r7c1, r7c2, r7c3, r7c4, r7c5 (steps 51–55) · home = centre r7c6 (step 56)</text>
<text x="24" y="949.2" font-size="12" font-weight="500" text-anchor="start" fill="#3A404D">Distance after opening: 50 track moves + 5 lane moves + 1 move into home = 56 dice steps.</text>
<text x="24" y="968.2" font-size="12" font-weight="500" text-anchor="start" fill="#3A404D">Identical for every colour. The cell behind the start is never visited (faded).</text>
<text x="804" y="1025.85" font-size="11" font-weight="800" text-anchor="end" fill="#C8102E">REFERENCE v1 — awaiting approval</text>
</svg>